<?xml version="1.0" encoding="UTF-8"?>
<svg width="128px" height="128px" viewBox="0 0 128 128" version="1.1" xmlns="http://www.w3.org/2000/svg">
    <path d="M45.12,33.56 C46.2400056,33.3466656 47.4799932,33.1600008 48.84,33 C50.2000068,32.8399992 51.5733264,32.7066672 52.96,32.6 C54.3466736,32.4933328 55.7333264,32.4133336 57.12,32.36 C58.5066736,32.3066664 59.8133272,32.28 61.04,32.28 C63.70668,32.28 66.2799876,32.546664 68.76,33.08 C71.2400124,33.613336 73.4266572,34.4933272 75.32,35.72 C77.2133428,36.9466728 78.7333276,38.5466568 79.88,40.52 C81.0266724,42.4933432 81.6,44.9199856 81.6,47.8 C81.6,50.0400112 81.2533368,52.0666576 80.56,53.88 C79.8666632,55.6933424 78.9066728,57.2933264 77.68,58.68 C76.4533272,60.0666736 75.0000084,61.226662 73.32,62.16 C71.6399916,63.093338 69.8133432,63.7999976 67.84,64.28 L72,67.08 L87.04,89 L77.84,89 L61.2,65.4 L53.12,64.28 L53.12,89 L45.12,89 L45.12,33.56 Z M61.28,39.16 C60.5333296,39.16 59.7733372,39.16 59,39.16 C58.2266628,39.16 57.4666704,39.1866664 56.72,39.24 C55.9733296,39.2933336 55.2800032,39.3466664 54.64,39.4 C53.9999968,39.4533336 53.4933352,39.5333328 53.12,39.64 L53.12,59 L59.68,59 C61.6000096,59 63.3733252,58.800002 65,58.4 C66.6266748,57.999998 68.039994,57.3866708 69.24,56.56 C70.440006,55.7333292 71.3866632,54.65334 72.08,53.32 C72.7733368,51.98666 73.12,50.3600096 73.12,48.44 C73.12,45.5599856 72.1066768,43.2933416 70.08,41.64 C68.0533232,39.9866584 65.1200192,39.16 61.28,39.16 Z" />
</svg>