<?xml version="1.0" encoding="UTF-8"?>
<svg width="919px" height="404px" viewBox="0 0 919 404" version="1.1" xmlns="http://www.w3.org/2000/svg" xmlns:xlink="http://www.w3.org/1999/xlink">
    <!-- Generator: Sketch 52.6 (67491) - http://www.bohemiancoding.com/sketch -->
    <title>Schema</title>
    <desc>Created with Sketch.</desc>
    <g id="Page-1" stroke="none" stroke-width="1" fill="none" fill-rule="evenodd">
        <g id="slices" transform="translate(-165.000000, -1247.000000)"></g>
        <g id="03-logic-view-schema" transform="translate(-165.000000, -272.000000)">
            <rect id="Back" fill="#FBFBFB" x="0" y="0" width="1280" height="800"></rect>
            <g id="Schema-(vectored)" transform="translate(165.000000, 272.000000)">
                <rect id="Rectangle" fill="#FFFFFF" x="0" y="0" width="919" height="404"></rect>
                <rect id="Rectangle" fill="#81BB3D" x="33" y="50" width="328" height="314"></rect>
                <text id="Logic" font-family="Hasklig-Regular, Hasklig" font-size="23" font-weight="normal" fill="#000000">
                    <tspan x="120" y="137">Logic</tspan>
                </text>
                <rect id="Rectangle" fill="#F5A623" x="84" y="91" width="226" height="85"></rect>
                <rect id="Rectangle" fill="#81BB3D" x="554" y="139" width="328" height="225"></rect>
                <rect id="Rectangle" fill="#F5A623" x="554" y="38" width="226" height="85"></rect>
                <path d="M609.41,89 L595.67,89 L595.67,68 L598.67,68 L598.67,86.36 L609.41,86.36 L609.41,89 Z M610.01,81.14 C610.01,79.8399935 610.179998,78.6750052 610.52,77.645 C610.860002,76.6149949 611.359997,75.7400036 612.02,75.02 C612.680003,74.2999964 613.484995,73.7500019 614.435,73.37 C615.385005,72.9899981 616.469994,72.8 617.69,72.8 C618.970006,72.8 620.089995,73.0099979 621.05,73.43 C622.010005,73.8500021 622.809997,74.4349963 623.45,75.185 C624.090003,75.9350037 624.564998,76.8149949 624.875,77.825 C625.185002,78.8350051 625.34,79.939994 625.34,81.14 C625.34,82.4200064 625.165002,83.5699949 624.815,84.59 C624.464998,85.6100051 623.965003,86.4799964 623.315,87.2 C622.664997,87.9200036 621.865005,88.4699981 620.915,88.85 C619.964995,89.2300019 618.890006,89.42 617.69,89.42 C616.369993,89.42 615.230005,89.2100021 614.27,88.79 C613.309995,88.3699979 612.515003,87.7900037 611.885,87.05 C611.254997,86.3099963 610.785002,85.4350051 610.475,84.425 C610.164998,83.4149949 610.01,82.3200059 610.01,81.14 Z M612.95,81.14 C612.95,81.8800037 613.034999,82.6049965 613.205,83.315 C613.375001,84.0250036 613.649998,84.6599972 614.03,85.22 C614.410002,85.7800028 614.899997,86.2299983 615.5,86.57 C616.100003,86.9100017 616.839996,87.08 617.72,87.08 C620.840016,87.08 622.4,85.1000198 622.4,81.14 C622.4,80.3599961 622.315001,79.6100036 622.145,78.89 C621.974999,78.1699964 621.705002,77.5350028 621.335,76.985 C620.964998,76.4349973 620.480003,75.9900017 619.88,75.65 C619.279997,75.3099983 618.560004,75.14 617.72,75.14 C616.159992,75.14 614.975004,75.6349951 614.165,76.625 C613.354996,77.6150049 612.95,79.1199899 612.95,81.14 Z M643.25,89.09 C643.25,91.1500103 642.645006,92.684995 641.435,93.695 C640.224994,94.705005 638.450012,95.21 636.11,95.21 C634.749993,95.21 633.650004,95.1300008 632.81,94.97 C631.969996,94.8099992 631.250003,94.5900014 630.65,94.31 L631.31,91.82 C631.570001,91.9400006 631.869998,92.0649993 632.21,92.195 C632.550002,92.3250006 632.909998,92.4399995 633.29,92.54 C633.670002,92.6400005 634.054998,92.7199997 634.445,92.78 C634.835002,92.8400003 635.209998,92.87 635.57,92.87 C636.550005,92.87 637.359997,92.7850009 638,92.615 C638.640003,92.4449992 639.149998,92.1800018 639.53,91.82 C639.910002,91.4599982 640.169999,91.0000028 640.31,90.44 C640.450001,89.8799972 640.52,89.2100039 640.52,88.43 L640.52,87.32 L640.19,87.32 C639.869998,87.8400026 639.310004,88.2599984 638.51,88.58 C637.709996,88.9000016 636.740006,89.06 635.6,89.06 C633.319989,89.06 631.640005,88.4450061 630.56,87.215 C629.479995,85.9849938 628.94,84.0000137 628.94,81.26 C628.94,78.5599865 629.639993,76.4800073 631.04,75.02 C632.440007,73.5599927 634.519986,72.83 637.28,72.83 C638.600007,72.83 639.734995,72.9099992 640.685,73.07 C641.635005,73.2300008 642.489996,73.4399987 643.25,73.7 L643.25,89.09 Z M636.2,86.72 C637.420006,86.72 638.374997,86.4100031 639.065,85.79 C639.755003,85.1699969 640.229999,84.360005 640.49,83.36 L640.49,75.62 C640.029998,75.4799993 639.500003,75.3700004 638.9,75.29 C638.299997,75.2099996 637.620004,75.17 636.86,75.17 C635.299992,75.17 634.080004,75.6649951 633.2,76.655 C632.319996,77.645005 631.88,79.1599898 631.88,81.2 C631.88,82.9600088 632.204997,84.3199952 632.855,85.28 C633.505003,86.2400048 634.619992,86.72 636.2,86.72 Z M649.37,73.25 L652.13,73.25 L652.13,89 L649.37,89 L649.37,73.25 Z M648.8,69.5 C648.8,69.0399977 648.979998,68.6250019 649.34,68.255 C649.700002,67.8849982 650.169997,67.7 650.75,67.7 C651.330003,67.7 651.809998,67.8849982 652.19,68.255 C652.570002,68.6250019 652.76,69.0399977 652.76,69.5 C652.76,69.9600023 652.570002,70.3649982 652.19,70.715 C651.809998,71.0650017 651.330003,71.24 650.75,71.24 C650.169997,71.24 649.700002,71.0650017 649.34,70.715 C648.979998,70.3649982 648.8,69.9600023 648.8,69.5 Z M669.98,87.92 C669.279997,88.4200025 668.460005,88.7949987 667.52,89.045 C666.579995,89.2950012 665.590005,89.42 664.55,89.42 C663.229993,89.42 662.105005,89.220002 661.175,88.82 C660.244995,88.419998 659.490003,87.8600036 658.91,87.14 C658.329997,86.4199964 657.910001,85.5500051 657.65,84.53 C657.389999,83.5099949 657.26,82.3800062 657.26,81.14 C657.26,78.4799867 657.904994,76.4250072 659.195,74.975 C660.485006,73.5249927 662.339988,72.8 664.76,72.8 C665.820005,72.8 666.739996,72.894999 667.52,73.085 C668.300004,73.275001 668.999997,73.5099986 669.62,73.79 L668.9,76.04 C668.359997,75.7599986 667.775003,75.5400008 667.145,75.38 C666.514997,75.2199992 665.830004,75.14 665.09,75.14 C661.829984,75.14 660.2,77.13998 660.2,81.14 C660.2,81.9000038 660.289999,82.6349965 660.47,83.345 C660.650001,84.0550036 660.939998,84.6849973 661.34,85.235 C661.740002,85.7850028 662.264997,86.2299983 662.915,86.57 C663.565003,86.9100017 664.359995,87.08 665.3,87.08 C666.140004,87.08 666.874997,86.9650012 667.505,86.735 C668.135003,86.5049988 668.659998,86.2300016 669.08,85.91 L669.98,87.92 Z" id="Logic" fill="#000000"></path>
                <path d="M136.41,142 L122.67,142 L122.67,121 L125.67,121 L125.67,139.36 L136.41,139.36 L136.41,142 Z M137.01,134.14 C137.01,132.839993 137.179998,131.675005 137.52,130.645 C137.860002,129.614995 138.359997,128.740004 139.02,128.02 C139.680003,127.299996 140.484995,126.750002 141.435,126.37 C142.385005,125.989998 143.469994,125.8 144.69,125.8 C145.970006,125.8 147.089995,126.009998 148.05,126.43 C149.010005,126.850002 149.809997,127.434996 150.45,128.185 C151.090003,128.935004 151.564998,129.814995 151.875,130.825 C152.185002,131.835005 152.34,132.939994 152.34,134.14 C152.34,135.420006 152.165002,136.569995 151.815,137.59 C151.464998,138.610005 150.965003,139.479996 150.315,140.2 C149.664997,140.920004 148.865005,141.469998 147.915,141.85 C146.964995,142.230002 145.890006,142.42 144.69,142.42 C143.369993,142.42 142.230005,142.210002 141.27,141.79 C140.309995,141.369998 139.515003,140.790004 138.885,140.05 C138.254997,139.309996 137.785002,138.435005 137.475,137.425 C137.164998,136.414995 137.01,135.320006 137.01,134.14 Z M139.95,134.14 C139.95,134.880004 140.034999,135.604996 140.205,136.315 C140.375001,137.025004 140.649998,137.659997 141.03,138.22 C141.410002,138.780003 141.899997,139.229998 142.5,139.57 C143.100003,139.910002 143.839996,140.08 144.72,140.08 C147.840016,140.08 149.4,138.10002 149.4,134.14 C149.4,133.359996 149.315001,132.610004 149.145,131.89 C148.974999,131.169996 148.705002,130.535003 148.335,129.985 C147.964998,129.434997 147.480003,128.990002 146.88,128.65 C146.279997,128.309998 145.560004,128.14 144.72,128.14 C143.159992,128.14 141.975004,128.634995 141.165,129.625 C140.354996,130.615005 139.95,132.11999 139.95,134.14 Z M170.25,142.09 C170.25,144.15001 169.645006,145.684995 168.435,146.695 C167.224994,147.705005 165.450012,148.21 163.11,148.21 C161.749993,148.21 160.650004,148.130001 159.81,147.97 C158.969996,147.809999 158.250003,147.590001 157.65,147.31 L158.31,144.82 C158.570001,144.940001 158.869998,145.064999 159.21,145.195 C159.550002,145.325001 159.909998,145.439999 160.29,145.54 C160.670002,145.64 161.054998,145.72 161.445,145.78 C161.835002,145.84 162.209998,145.87 162.57,145.87 C163.550005,145.87 164.359997,145.785001 165,145.615 C165.640003,145.444999 166.149998,145.180002 166.53,144.82 C166.910002,144.459998 167.169999,144.000003 167.31,143.44 C167.450001,142.879997 167.52,142.210004 167.52,141.43 L167.52,140.32 L167.19,140.32 C166.869998,140.840003 166.310004,141.259998 165.51,141.58 C164.709996,141.900002 163.740006,142.06 162.6,142.06 C160.319989,142.06 158.640005,141.445006 157.56,140.215 C156.479995,138.984994 155.94,137.000014 155.94,134.26 C155.94,131.559987 156.639993,129.480007 158.04,128.02 C159.440007,126.559993 161.519986,125.83 164.28,125.83 C165.600007,125.83 166.734995,125.909999 167.685,126.07 C168.635005,126.230001 169.489996,126.439999 170.25,126.7 L170.25,142.09 Z M163.2,139.72 C164.420006,139.72 165.374997,139.410003 166.065,138.79 C166.755003,138.169997 167.229999,137.360005 167.49,136.36 L167.49,128.62 C167.029998,128.479999 166.500003,128.37 165.9,128.29 C165.299997,128.21 164.620004,128.17 163.86,128.17 C162.299992,128.17 161.080004,128.664995 160.2,129.655 C159.319996,130.645005 158.88,132.15999 158.88,134.2 C158.88,135.960009 159.204997,137.319995 159.855,138.28 C160.505003,139.240005 161.619992,139.72 163.2,139.72 Z M176.37,126.25 L179.13,126.25 L179.13,142 L176.37,142 L176.37,126.25 Z M175.8,122.5 C175.8,122.039998 175.979998,121.625002 176.34,121.255 C176.700002,120.884998 177.169997,120.7 177.75,120.7 C178.330003,120.7 178.809998,120.884998 179.19,121.255 C179.570002,121.625002 179.76,122.039998 179.76,122.5 C179.76,122.960002 179.570002,123.364998 179.19,123.715 C178.809998,124.065002 178.330003,124.24 177.75,124.24 C177.169997,124.24 176.700002,124.065002 176.34,123.715 C175.979998,123.364998 175.8,122.960002 175.8,122.5 Z M196.98,140.92 C196.279997,141.420003 195.460005,141.794999 194.52,142.045 C193.579995,142.295001 192.590005,142.42 191.55,142.42 C190.229993,142.42 189.105005,142.220002 188.175,141.82 C187.244995,141.419998 186.490003,140.860004 185.91,140.14 C185.329997,139.419996 184.910001,138.550005 184.65,137.53 C184.389999,136.509995 184.26,135.380006 184.26,134.14 C184.26,131.479987 184.904994,129.425007 186.195,127.975 C187.485006,126.524993 189.339988,125.8 191.76,125.8 C192.820005,125.8 193.739996,125.894999 194.52,126.085 C195.300004,126.275001 195.999997,126.509999 196.62,126.79 L195.9,129.04 C195.359997,128.759999 194.775003,128.540001 194.145,128.38 C193.514997,128.219999 192.830004,128.14 192.09,128.14 C188.829984,128.14 187.2,130.13998 187.2,134.14 C187.2,134.900004 187.289999,135.634996 187.47,136.345 C187.650001,137.055004 187.939998,137.684997 188.34,138.235 C188.740002,138.785003 189.264997,139.229998 189.915,139.57 C190.565003,139.910002 191.359995,140.08 192.3,140.08 C193.140004,140.08 193.874997,139.965001 194.505,139.735 C195.135003,139.504999 195.659998,139.230002 196.08,138.91 L196.98,140.92 Z" id="Logic" fill="#000000"></path>
                <path d="M123.75,266 L126.75,266 L126.75,282.2 C126.75,283.760008 126.345004,284.999995 125.535,285.92 C124.724996,286.840005 123.530008,287.3 121.95,287.3 C121.749999,287.3 121.515001,287.29 121.245,287.27 C120.974999,287.25 120.700001,287.215 120.42,287.165 C120.139999,287.115 119.870001,287.06 119.61,287 C119.349999,286.94 119.130001,286.87 118.95,286.79 L119.52,284.3 C120.080003,284.540001 120.749996,284.66 121.53,284.66 C122.430004,284.66 123.024999,284.370003 123.315,283.79 C123.605001,283.209997 123.75,282.410005 123.75,281.39 L123.75,266 Z M142.74,281.48 C142.74,280.659996 142.470003,280.010002 141.93,279.53 C141.389997,279.049998 140.710004,278.635002 139.89,278.285 C139.069996,277.934998 138.190005,277.605002 137.25,277.295 C136.309995,276.984998 135.430004,276.590002 134.61,276.11 C133.789996,275.629998 133.110003,275.010004 132.57,274.25 C132.029997,273.489996 131.76,272.500006 131.76,271.28 C131.76,269.579992 132.384994,268.210005 133.635,267.17 C134.885006,266.129995 136.669988,265.61 138.99,265.61 C140.330007,265.61 141.559994,265.709999 142.68,265.91 C143.800006,266.110001 144.679997,266.369998 145.32,266.69 L144.39,269.21 C143.889997,268.949999 143.140005,268.715001 142.14,268.505 C141.139995,268.294999 140.040006,268.19 138.84,268.19 C137.479993,268.19 136.460003,268.479997 135.78,269.06 C135.099997,269.640003 134.76,270.309996 134.76,271.07 C134.76,271.850004 135.029997,272.479998 135.57,272.96 C136.110003,273.440002 136.789996,273.864998 137.61,274.235 C138.430004,274.605002 139.309995,274.959998 140.25,275.3 C141.190005,275.640002 142.069996,276.059998 142.89,276.56 C143.710004,277.060002 144.389997,277.674996 144.93,278.405 C145.470003,279.135004 145.74,280.069994 145.74,281.21 C145.74,282.150005 145.560002,282.999996 145.2,283.76 C144.839998,284.520004 144.320003,285.169997 143.64,285.71 C142.959997,286.250003 142.140005,286.664999 141.18,286.955 C140.219995,287.245001 139.130006,287.39 137.91,287.39 C136.269992,287.39 134.885006,287.265001 133.755,287.015 C132.624994,286.764999 131.770003,286.500001 131.19,286.22 L132.18,283.61 C132.680003,283.870001 133.434995,284.134999 134.445,284.405 C135.455005,284.675001 136.569994,284.81 137.79,284.81 C138.490004,284.81 139.139997,284.745001 139.74,284.615 C140.340003,284.484999 140.864998,284.285001 141.315,284.015 C141.765002,283.744999 142.114999,283.400002 142.365,282.98 C142.615001,282.559998 142.74,282.060003 142.74,281.48 Z M155.58,276.32 L148.65,266 L152.22,266 L156.75,272.9 L157.56,274.64 L158.34,272.9 L163.08,266 L166.38,266 L159.24,276.11 L166.71,287 L163.2,287 L158.19,279.68 L157.26,277.85 L156.42,279.68 L151.29,287 L147.99,287 L155.58,276.32 Z" id="JSX" fill="#000000"></path>
                <path d="M593.75,236 L596.75,236 L596.75,252.2 C596.75,253.760008 596.345004,254.999995 595.535,255.92 C594.724996,256.840005 593.530008,257.3 591.95,257.3 C591.749999,257.3 591.515001,257.29 591.245,257.27 C590.974999,257.25 590.700001,257.215 590.42,257.165 C590.139999,257.115 589.870001,257.06 589.61,257 C589.349999,256.94 589.130001,256.87 588.95,256.79 L589.52,254.3 C590.080003,254.540001 590.749996,254.66 591.53,254.66 C592.430004,254.66 593.024999,254.370003 593.315,253.79 C593.605001,253.209997 593.75,252.410005 593.75,251.39 L593.75,236 Z M612.74,251.48 C612.74,250.659996 612.470003,250.010002 611.93,249.53 C611.389997,249.049998 610.710004,248.635002 609.89,248.285 C609.069996,247.934998 608.190005,247.605002 607.25,247.295 C606.309995,246.984998 605.430004,246.590002 604.61,246.11 C603.789996,245.629998 603.110003,245.010004 602.57,244.25 C602.029997,243.489996 601.76,242.500006 601.76,241.28 C601.76,239.579992 602.384994,238.210005 603.635,237.17 C604.885006,236.129995 606.669988,235.61 608.99,235.61 C610.330007,235.61 611.559994,235.709999 612.68,235.91 C613.800006,236.110001 614.679997,236.369998 615.32,236.69 L614.39,239.21 C613.889998,238.949999 613.140005,238.715001 612.14,238.505 C611.139995,238.294999 610.040006,238.19 608.84,238.19 C607.479993,238.19 606.460003,238.479997 605.78,239.06 C605.099997,239.640003 604.76,240.309996 604.76,241.07 C604.76,241.850004 605.029997,242.479998 605.57,242.96 C606.110003,243.440002 606.789996,243.864998 607.61,244.235 C608.430004,244.605002 609.309995,244.959998 610.25,245.3 C611.190005,245.640002 612.069996,246.059998 612.89,246.56 C613.710004,247.060002 614.389997,247.674996 614.93,248.405 C615.470003,249.135004 615.74,250.069994 615.74,251.21 C615.74,252.150005 615.560002,252.999996 615.2,253.76 C614.839998,254.520004 614.320003,255.169997 613.64,255.71 C612.959997,256.250003 612.140005,256.664999 611.18,256.955 C610.219995,257.245001 609.130006,257.39 607.91,257.39 C606.269992,257.39 604.885006,257.265001 603.755,257.015 C602.624994,256.764999 601.770003,256.500001 601.19,256.22 L602.18,253.61 C602.680003,253.870001 603.434995,254.134999 604.445,254.405 C605.455005,254.675001 606.569994,254.81 607.79,254.81 C608.490004,254.81 609.139997,254.745001 609.74,254.615 C610.340003,254.484999 610.864998,254.285001 611.315,254.015 C611.765002,253.744999 612.114999,253.400002 612.365,252.98 C612.615001,252.559998 612.74,252.060003 612.74,251.48 Z M625.58,246.32 L618.65,236 L622.22,236 L626.75,242.9 L627.56,244.64 L628.34,242.9 L633.08,236 L636.38,236 L629.24,246.11 L636.71,257 L633.2,257 L628.19,249.68 L627.26,247.85 L626.42,249.68 L621.29,257 L617.99,257 L625.58,246.32 Z" id="JSX" fill="#000000"></path>
                <path id="Line" d="M536.239964,85.8926911 L310.318395,134.965819 L308.852576,135.284214 L308.215786,132.352576 L309.681605,132.034181 L535.603174,82.9610536 L533.905067,75.1433536 L554.488606,80.3938683 L537.938071,93.7103911 L536.239964,85.8926911 Z" fill="#F5A623" fill-rule="nonzero"></path>
                <path id="Line" d="M536.5,278 L360.5,278 L359,278 L359,275 L360.5,275 L536.5,275 L536.5,267 L555.5,276.5 L536.5,286 L536.5,278 Z" fill="#81BB3D" fill-rule="nonzero"></path>
            </g>
        </g>
    </g>
</svg>